<svg xmlns="http://www.w3.org/2000/svg" viewBox="0 0 64 64">
  <g transform="matrix(1.35567 0 0 1.35567-452.35-687.47)">
    <g transform="matrix(1.52062 0 0 1.52062-204.35-290.39)">
      <path d="m16.444 1039.19v-2.23c0-3.03-2.463-5.49-5.49-5.49-3.03 0-5.49 2.463-5.49 5.49v2.23c-.433.09-.759.475-.759.935v8.358c0 .526.428.955.955.955h10.587c.527 0 .955-.429.955-.955v-8.358c0-.459-.326-.844-.759-.935m-4.207 7.125c.019.105-.051.188-.156.188h-2.229c-.105 0-.175-.083-.156-.188l.355-1.881c-.269-.245-.437-.598-.437-.99 0-.74.6-1.34 1.34-1.34.74 0 1.34.6 1.34 1.34 0 .381-.16.725-.416.969zm2.297-7.145h-7.16v-2.21c0-1.974 1.606-3.58 3.58-3.58 1.974 0 3.58 1.606 3.58 3.58z" fill="#777" transform="matrix(.81569 0 0 .81569 360.41-308.71)"/>
    </g>
  </g>
</svg>